<svg xmlns="http://www.w3.org/2000/svg" viewBox="0 0 288.65 216.79"><defs><style>.cls-1{fill:#005cb9;}.cls-2{fill:#636569;}</style></defs><title>logo</title><g id="Skib"><path class="cls-1" d="M74.27,79.81a8.7,8.7,0,0,0,4,.86c3.87,0,5.66-1.75,8.14-4.18,2.81-2.75,6.31-6.17,13-6.17s10.23,3.42,13,6.17c2.48,2.43,4.27,4.18,8.14,4.18a8.94,8.94,0,0,0,3.56-.66V50.87S123.93,48,127.8,45c5.12-4.09,22.14-11.33,27.53-11.84,5.67-.55,5.57,6.12,5.57,6.12V80.46a10.49,10.49,0,0,0,2,.21c3.87,0,5.67-1.75,8.15-4.18,2.81-2.75,6.31-6.17,13-6.17s10.23,3.42,13,6.17c2.48,2.43,4.28,4.18,8.15,4.18A8.82,8.82,0,0,0,209,80c.17-14.12.29-33.84-.25-42.9-.9-14.95,1.79-39-27.41-36.93s-57,22.43-57,22.43,0-4.22-.14-11.9C124,2.26,113.36,5.2,110.81,6.24c-2,.8-9,5.29-28.38,16.8-9.51,5.63-8.16,18.31-8.16,18.31Z"/><path class="cls-1" d="M78.24,98.33c3.87,0,5.66-1.75,8.14-4.17,2.81-2.75,6.31-6.17,13-6.17s10.23,3.42,13,6.17c2.48,2.42,4.27,4.17,8.14,4.17a9,9,0,0,0,3.52-.64,6.48,6.48,0,0,0,0-1.74V87.31a17,17,0,0,1-3.56.36c-6.72,0-10.22-3.42-13-6.17-2.48-2.43-4.28-4.18-8.15-4.18s-5.66,1.75-8.14,4.18c-2.81,2.75-6.31,6.17-13,6.17a16.65,16.65,0,0,1-4-.46V96a13,13,0,0,0,.07,1.56A8.69,8.69,0,0,0,78.24,98.33Z"/><path class="cls-1" d="M107.56,99.16c-2.48-2.42-4.28-4.17-8.15-4.17s-5.66,1.75-8.14,4.17a25.26,25.26,0,0,1-5.19,4.2c7.71.06,19.59.18,26.88.11A24.12,24.12,0,0,1,107.56,99.16Z"/><path class="cls-1" d="M161.18,98.18a10.69,10.69,0,0,0,1.76.15c3.87,0,5.67-1.75,8.15-4.17,2.81-2.75,6.31-6.17,13-6.17s10.23,3.42,13,6.17c2.48,2.42,4.28,4.17,8.15,4.17a9.06,9.06,0,0,0,3.36-.59,8.4,8.4,0,0,0,.08-1.79s.07-3.41.15-8.65a17.29,17.29,0,0,1-3.59.37c-6.73,0-10.23-3.42-13-6.17-2.48-2.43-4.28-4.18-8.15-4.18s-5.66,1.75-8.14,4.18c-2.81,2.75-6.32,6.17-13,6.17a18.82,18.82,0,0,1-2-.12V96A9.84,9.84,0,0,0,161.18,98.18Z"/><path class="cls-1" d="M192.27,99.16C189.79,96.74,188,95,184.12,95s-5.66,1.75-8.14,4.17a27.68,27.68,0,0,1-4.55,3.81c5.39,0,17.76.12,25.53.09A26.74,26.74,0,0,1,192.27,99.16Z"/></g><g id="Elementer"><path class="cls-2" d="M16.3,149.13a1.65,1.65,0,0,1-.57-.59l-8.7-13v12.85a1,1,0,0,1-.3.72,1,1,0,0,1-.73.3H1a1,1,0,0,1-.73-.3,1,1,0,0,1-.3-.72V123.84a1,1,0,0,1,.3-.72,1,1,0,0,1,.73-.31H5a1.72,1.72,0,0,1,1,.29,1.75,1.75,0,0,1,.57.59l8.7,13V123.84a1,1,0,0,1,.3-.72,1,1,0,0,1,.72-.31h5a1.06,1.06,0,0,1,1,1v24.55a1,1,0,0,1-.31.72,1,1,0,0,1-.72.3H17.29A1.72,1.72,0,0,1,16.3,149.13Z"/><path class="cls-2" d="M46.57,124.41a10.13,10.13,0,0,1,4,5.28l1.33-.53a1.38,1.38,0,0,1,.42-.12.81.81,0,0,1,.57.23.78.78,0,0,1,.22.57v2.21a1.17,1.17,0,0,1-.83,1.25l-1.1.42c0,.48,0,1.23,0,2.24s0,2.12-.07,3.54a11,11,0,0,1-1.58,5.22,10,10,0,0,1-4,3.7,13.17,13.17,0,0,1-6.23,1.37A12.81,12.81,0,0,1,32,147.84a10.05,10.05,0,0,1-4-5.19l-1.33.49a1.14,1.14,0,0,1-.42.12.79.79,0,0,1-.8-.8v-2.21a1.43,1.43,0,0,1,.19-.81,1.19,1.19,0,0,1,.65-.44l1.06-.42c0-.43,0-1.11,0-2.05,0-1.32,0-2.58.12-3.8A10.93,10.93,0,0,1,29,127.51a10,10,0,0,1,4.05-3.71,13.32,13.32,0,0,1,6.23-1.37A12.66,12.66,0,0,1,46.57,124.41ZM44,132.2a4.53,4.53,0,0,0-1.5-2.7,4.78,4.78,0,0,0-3.21-1,4.66,4.66,0,0,0-3.44,1.2,5,5,0,0,0-1.38,3.21q-.12,1.26-.12,3Zm-9.42,7.9a4.4,4.4,0,0,0,1.52,2.64,4.84,4.84,0,0,0,3.19,1,4.68,4.68,0,0,0,3.44-1.19,5.07,5.07,0,0,0,1.39-3.22c.07-.81.11-1.77.11-2.88Z"/><path class="cls-2" d="M75.54,125a7.72,7.72,0,0,1,2.82,6.51q0,5.52-4.53,7.61l4.72,9a1,1,0,0,1,.11.42.84.84,0,0,1-.84.83H72.66a1.58,1.58,0,0,1-1-.28,2.25,2.25,0,0,1-.57-.74l-4.22-8.14H63.35v8.14a1,1,0,0,1-1,1h-5a1,1,0,0,1-1-1V123.84a1,1,0,0,1,.3-.72,1,1,0,0,1,.72-.31h10.3C71,122.81,73.67,123.54,75.54,125Zm-7.9,9.33q3.69,0,3.69-2.82t-3.69-2.81H63.35v5.63Z"/><path class="cls-2" d="M101.19,125a7.72,7.72,0,0,1,2.82,6.51q0,5.52-4.53,7.61l4.72,9a1,1,0,0,1,.11.42.84.84,0,0,1-.84.83H98.31a1.58,1.58,0,0,1-1-.28,2.25,2.25,0,0,1-.57-.74l-4.22-8.14H89v8.14a1,1,0,0,1-1,1H83a1,1,0,0,1-1-1V123.84a1,1,0,0,1,.3-.72,1,1,0,0,1,.72-.31h10.3C96.68,122.81,99.32,123.54,101.19,125Zm-7.9,9.33q3.69,0,3.69-2.82t-3.69-2.81H89v5.63Z"/><path class="cls-2" d="M114.65,143.33h12a1,1,0,0,1,1,1v4a1,1,0,0,1-.3.72,1,1,0,0,1-.73.3h-18a1,1,0,0,1-1-1V123.84a1,1,0,0,1,.3-.72,1,1,0,0,1,.72-.31h17.71a1,1,0,0,1,.72.31,1,1,0,0,1,.31.72v4a1,1,0,0,1-1,1h-11.7V133h10.86a1,1,0,0,1,.73.3,1,1,0,0,1,.3.72v4a1,1,0,0,1-1,1H114.65Z"/><path class="cls-2" d="M152.85,130.51a.75.75,0,0,1-.55.24h-5a2.11,2.11,0,0,1-.84-.13,2.88,2.88,0,0,1-.68-.47c-.06-.05-.22-.22-.5-.52a3.45,3.45,0,0,0-1.31-.77,5.72,5.72,0,0,0-2.07-.35,7,7,0,0,0-2.68.44,1.52,1.52,0,0,0-1,1.5,1.37,1.37,0,0,0,.64,1.2,6.68,6.68,0,0,0,2,.78c.9.23,2.46.57,4.69,1a13.2,13.2,0,0,1,6.31,2.74,7.63,7.63,0,0,1,.51,9.71,9.45,9.45,0,0,1-4.18,2.89,17.19,17.19,0,0,1-6.06,1,14.9,14.9,0,0,1-5.93-1.14,10.86,10.86,0,0,1-4.18-3,6.25,6.25,0,0,1-1.59-3.76.81.81,0,0,1,.24-.59.76.76,0,0,1,.55-.25h5a2.16,2.16,0,0,1,1.45.53l.6.67a4.2,4.2,0,0,0,1.51,1,5.94,5.94,0,0,0,2.37.43q4.71,0,4.71-2a1.27,1.27,0,0,0-.66-1.08,6.53,6.53,0,0,0-1.88-.75c-.82-.2-2.11-.49-3.88-.87l-1.71-.34a10.76,10.76,0,0,1-5.7-2.79,7.36,7.36,0,0,1-1.82-5.23,6.88,6.88,0,0,1,1.33-4.08,9.07,9.07,0,0,1,3.78-3,14.47,14.47,0,0,1,11.26,0,11.1,11.1,0,0,1,4,2.91,5.76,5.76,0,0,1,1.54,3.42A.79.79,0,0,1,152.85,130.51Z"/><path class="cls-2" d="M180.2,123.12a1,1,0,0,1,.3.72V139a11.28,11.28,0,0,1-1.44,5.85,9.4,9.4,0,0,1-4.05,3.69,15.41,15.41,0,0,1-12.16,0,9.18,9.18,0,0,1-4-3.69A11.37,11.37,0,0,1,157.4,139V123.84a1,1,0,0,1,.3-.72,1,1,0,0,1,.72-.31h5a1,1,0,0,1,.72.31,1,1,0,0,1,.31.72v15a5.16,5.16,0,0,0,1.15,3.59,5.09,5.09,0,0,0,6.73,0,5.17,5.17,0,0,0,1.16-3.59v-15a1,1,0,0,1,1-1h5A1,1,0,0,1,180.2,123.12Z"/><path class="cls-2" d="M201.86,149.13a1.65,1.65,0,0,1-.57-.59l-8.71-13v12.85a1,1,0,0,1-1,1h-5a1,1,0,0,1-.72-.3,1,1,0,0,1-.31-.72V123.84a1.06,1.06,0,0,1,1-1h3.95a1.72,1.72,0,0,1,1,.29,1.58,1.58,0,0,1,.57.59l8.7,13V123.84a1.06,1.06,0,0,1,1-1h5a1,1,0,0,1,1,1v24.55a1,1,0,0,1-.3.72,1,1,0,0,1-.72.3h-4A1.66,1.66,0,0,1,201.86,149.13Z"/><path class="cls-2" d="M236.32,136.15c0,.41,0,1.29-.07,2.66a11,11,0,0,1-1.62,5.51,10.28,10.28,0,0,1-4.12,3.74,13.12,13.12,0,0,1-6.08,1.35H214.17a1,1,0,0,1-.72-.3,1,1,0,0,1-.31-.72V123.84a1.06,1.06,0,0,1,1-1h10.07a13.42,13.42,0,0,1,6.13,1.35,10.48,10.48,0,0,1,4.22,3.76,10.77,10.77,0,0,1,1.66,5.49C236.3,134.83,236.32,135.75,236.32,136.15Zm-16.15-7.26v14.44h4.07c3.19,0,4.85-1.45,5-4.37.05-1.47.07-2.43.07-2.88s0-1.45-.07-2.82a4.36,4.36,0,0,0-1.43-3.26,5.62,5.62,0,0,0-3.74-1.11Z"/><path class="cls-2" d="M240.16,149.11a1,1,0,0,1-.31-.72V123.84a1,1,0,0,1,.31-.72,1,1,0,0,1,.72-.31h12.24a10.57,10.57,0,0,1,5.24,1.14,7,7,0,0,1,2.91,2.91,8.49,8.49,0,0,1,.89,3.86,6.2,6.2,0,0,1-.66,3.06,5.89,5.89,0,0,1-1.47,1.76,5.6,5.6,0,0,1,2.05,2.34,7.89,7.89,0,0,1,.61,3.29,8.46,8.46,0,0,1-2.13,5.89q-2.12,2.35-6.65,2.35h-13A1,1,0,0,1,240.16,149.11Zm6.72-20.41V133h5.89a2.39,2.39,0,0,0,1.73-.58,2.08,2.08,0,0,0,.59-1.59,2.11,2.11,0,0,0-.59-1.6,2.39,2.39,0,0,0-1.73-.57Zm6.27,14.82a2.57,2.57,0,0,0,1.83-.64,2.4,2.4,0,0,0,0-3.35,2.57,2.57,0,0,0-1.83-.64h-6.27v4.63Z"/><path class="cls-2" d="M279.41,149.11a1,1,0,0,1-.72.3h-5a1,1,0,0,1-1-1v-8.1l-8.78-16.15a1,1,0,0,1-.15-.49.82.82,0,0,1,.24-.59.83.83,0,0,1,.59-.25h5.21a1.56,1.56,0,0,1,1,.33,1.9,1.9,0,0,1,.55.62l4.79,9.35,4.83-9.35a1.9,1.9,0,0,1,.55-.62,1.58,1.58,0,0,1,1-.33h5.21a.85.85,0,0,1,.84.84.91.91,0,0,1-.16.49l-8.77,16.15v8.1A1,1,0,0,1,279.41,149.11Z"/><path class="cls-2" d="M.46,186.71A1,1,0,0,1,.15,186V161.44a1,1,0,0,1,.31-.72,1,1,0,0,1,.72-.31H13.41a10.61,10.61,0,0,1,5.25,1.14,7,7,0,0,1,2.91,2.91,8.49,8.49,0,0,1,.89,3.86,6.09,6.09,0,0,1-.67,3.06,5.73,5.73,0,0,1-1.46,1.76,5.67,5.67,0,0,1,2.05,2.34,7.92,7.92,0,0,1,.61,3.29,8.46,8.46,0,0,1-2.13,5.89c-1.42,1.57-3.63,2.35-6.65,2.35h-13A1,1,0,0,1,.46,186.71ZM7.18,166.3v4.34h5.89a2.39,2.39,0,0,0,1.73-.57,2.46,2.46,0,0,0,0-3.2,2.39,2.39,0,0,0-1.73-.57Zm6.27,14.82a2.57,2.57,0,0,0,1.83-.64,2.4,2.4,0,0,0,0-3.35,2.57,2.57,0,0,0-1.83-.64H7.18v4.63Z"/><path class="cls-2" d="M44.42,161.4a10,10,0,0,1,4,3.71,11,11,0,0,1,1.58,5.22c.05.71.07,1.85.07,3.42s0,2.66-.07,3.35a11.08,11.08,0,0,1-1.58,5.22,10.12,10.12,0,0,1-4,3.71,13.32,13.32,0,0,1-6.23,1.36A13.32,13.32,0,0,1,32,186a10.12,10.12,0,0,1-4.05-3.71,11,11,0,0,1-1.58-5.22c0-1.37-.07-2.49-.07-3.35s0-2,.07-3.42a10.94,10.94,0,0,1,1.58-5.22A10,10,0,0,1,32,161.4,13.32,13.32,0,0,1,38.19,160,13.32,13.32,0,0,1,44.42,161.4Zm-2.79,5.91a4.66,4.66,0,0,0-3.44-1.2,4.64,4.64,0,0,0-3.44,1.2,5.06,5.06,0,0,0-1.39,3.21c-.07.84-.11,1.89-.11,3.16s0,2.31.11,3.23a5.06,5.06,0,0,0,1.39,3.21,4.68,4.68,0,0,0,3.44,1.19,4.7,4.7,0,0,0,3.44-1.19A5.06,5.06,0,0,0,43,176.91c.07-.92.11-2,.11-3.23s0-2.32-.11-3.16A5.06,5.06,0,0,0,41.63,167.31Z"/><path class="cls-2" d="M73.07,181.24a1,1,0,0,1,.31.72v4a1,1,0,0,1-.31.72,1,1,0,0,1-.72.3H54.76a1,1,0,0,1-.72-.3,1,1,0,0,1-.31-.72V161.44a1,1,0,0,1,.31-.72,1,1,0,0,1,.72-.31h5a1,1,0,0,1,.72.31,1,1,0,0,1,.3.72v19.49H72.35A1,1,0,0,1,73.07,181.24Z"/><path class="cls-2" d="M76.19,186.71a1,1,0,0,1-.3-.72V161.44a1,1,0,0,1,1-1h5a1.06,1.06,0,0,1,1,1V186a1,1,0,0,1-1,1h-5A1,1,0,0,1,76.19,186.71Z"/><path class="cls-2" d="M94.24,173.45c0,1.57,0,2.72.11,3.46a5.1,5.1,0,0,0,1.3,3.17,4.53,4.53,0,0,0,3.49,1.23,5.57,5.57,0,0,0,3.48-1,3.76,3.76,0,0,0,1.31-3.18h-3.19a1,1,0,0,1-.72-.3,1,1,0,0,1-.31-.72v-4a1,1,0,0,1,.31-.72,1,1,0,0,1,.72-.31h9.19a1,1,0,0,1,.73.31,1,1,0,0,1,.3.72v4.86a9.82,9.82,0,0,1-1.56,5.53,10.13,10.13,0,0,1-4.24,3.65,13.81,13.81,0,0,1-6,1.27A13,13,0,0,1,93,186a10.36,10.36,0,0,1-4.07-3.73,10.8,10.8,0,0,1-1.6-5.18c0-1.22-.07-2.22-.07-3s0-2.19.07-3.76a10.58,10.58,0,0,1,1.56-5.19A10.4,10.4,0,0,1,93,161.42,13.15,13.15,0,0,1,99.14,160a13.6,13.6,0,0,1,6,1.26,11,11,0,0,1,4.06,3.15,6.86,6.86,0,0,1,1.58,3.69.68.68,0,0,1-.23.59.89.89,0,0,1-.61.24h-5.05a1.17,1.17,0,0,1-.78-.24,8.57,8.57,0,0,1-.74-.78,5.18,5.18,0,0,0-1.62-1.33,5.58,5.58,0,0,0-2.6-.5q-4.29,0-4.79,4.41A28.44,28.44,0,0,0,94.24,173.45Z"/><path class="cls-2" d="M136.06,168.11a.8.8,0,0,1-.55.25h-5a2.12,2.12,0,0,1-.84-.14,2.61,2.61,0,0,1-.68-.47c0-.05-.22-.22-.49-.52a3.54,3.54,0,0,0-1.31-.77,5.77,5.77,0,0,0-2.08-.35,7,7,0,0,0-2.67.44,1.52,1.52,0,0,0-1,1.5,1.35,1.35,0,0,0,.65,1.2,6.6,6.6,0,0,0,2,.78c.9.23,2.46.57,4.69,1a13.11,13.11,0,0,1,6.31,2.74,6.89,6.89,0,0,1,2,5.32,6.78,6.78,0,0,1-1.51,4.39,9.45,9.45,0,0,1-4.18,2.89,17.12,17.12,0,0,1-6.06,1,14.85,14.85,0,0,1-5.92-1.14,10.78,10.78,0,0,1-4.18-3,6.2,6.2,0,0,1-1.6-3.76.78.78,0,0,1,.25-.59.73.73,0,0,1,.55-.25h5a2.15,2.15,0,0,1,1.44.53l.61.67a4.24,4.24,0,0,0,1.5,1,5.94,5.94,0,0,0,2.37.43c3.14,0,4.72-.67,4.72-2a1.28,1.28,0,0,0-.67-1.08,6.16,6.16,0,0,0-1.88-.74c-.81-.21-2.1-.5-3.88-.88l-1.71-.34a10.76,10.76,0,0,1-5.7-2.79,7.4,7.4,0,0,1-1.82-5.23,6.88,6.88,0,0,1,1.33-4.08,9.2,9.2,0,0,1,3.78-3,14.5,14.5,0,0,1,11.27,0,11.19,11.19,0,0,1,4,2.91,5.93,5.93,0,0,1,1.54,3.42A.83.83,0,0,1,136.06,168.11Z"/><path class="cls-2" d="M147.9,180.93h12a1,1,0,0,1,.73.31,1,1,0,0,1,.3.72v4a1,1,0,0,1-.3.72,1,1,0,0,1-.73.3h-18a1,1,0,0,1-1-1V161.44a1,1,0,0,1,1-1H159.6a1.06,1.06,0,0,1,1,1v4a1,1,0,0,1-1,1H147.9v4.11h10.86a1,1,0,0,1,.73.3,1,1,0,0,1,.3.72v4a1,1,0,0,1-1,1H147.9Z"/><path class="cls-2" d="M184.64,181.24a1,1,0,0,1,.31.72v4a1,1,0,0,1-1,1H166.33a1,1,0,0,1-.73-.3,1,1,0,0,1-.3-.72V161.44a1,1,0,0,1,.3-.72,1,1,0,0,1,.73-.31h5a1,1,0,0,1,.73.31,1,1,0,0,1,.3.72v19.49h11.59A1,1,0,0,1,184.64,181.24Z"/><path class="cls-2" d="M208.26,168.11a.8.8,0,0,1-.55.25h-5a2.12,2.12,0,0,1-.84-.14,2.61,2.61,0,0,1-.68-.47l-.5-.52a3.37,3.37,0,0,0-1.31-.77,5.68,5.68,0,0,0-2.07-.35,7,7,0,0,0-2.68.44,1.53,1.53,0,0,0-1,1.5,1.37,1.37,0,0,0,.64,1.2,6.79,6.79,0,0,0,2,.78c.9.23,2.46.57,4.69,1a13.11,13.11,0,0,1,6.31,2.74,7.63,7.63,0,0,1,.51,9.71,9.45,9.45,0,0,1-4.18,2.89,17.12,17.12,0,0,1-6.06,1,14.93,14.93,0,0,1-5.93-1.14,10.82,10.82,0,0,1-4.17-3,6.2,6.2,0,0,1-1.6-3.76.78.78,0,0,1,.25-.59.73.73,0,0,1,.55-.25h5a2.16,2.16,0,0,1,1.45.53l.61.67a4.24,4.24,0,0,0,1.5,1,5.94,5.94,0,0,0,2.37.43c3.14,0,4.72-.67,4.72-2a1.28,1.28,0,0,0-.67-1.08,6.16,6.16,0,0,0-1.88-.74c-.81-.21-2.1-.5-3.88-.88l-1.71-.34a10.76,10.76,0,0,1-5.7-2.79,7.4,7.4,0,0,1-1.82-5.23,6.88,6.88,0,0,1,1.33-4.08,9.2,9.2,0,0,1,3.78-3,14.5,14.5,0,0,1,11.27,0,11.28,11.28,0,0,1,4,2.91,5.85,5.85,0,0,1,1.53,3.42A.82.82,0,0,1,208.26,168.11Z"/><path class="cls-2" d="M233.43,186.18a.82.82,0,0,1-.83.83h-6a1.59,1.59,0,0,1-.84-.21,2.84,2.84,0,0,1-.72-.66l-7.18-9V186a1,1,0,0,1-1,1h-5a1,1,0,0,1-1-1V161.44a1,1,0,0,1,1-1h5a1.06,1.06,0,0,1,1,1v8l6.68-8.21a3.89,3.89,0,0,1,.61-.61,1.52,1.52,0,0,1,.91-.23H232a.82.82,0,0,1,.59.25.81.81,0,0,1,.13,1l-9.38,11.47,10,12.62A.66.66,0,0,1,233.43,186.18Z"/><path class="cls-2" d="M261.17,185.61a1.78,1.78,0,0,1,.16.57.83.83,0,0,1-.25.59.82.82,0,0,1-.59.24H255.7a1.6,1.6,0,0,1-1-.28,1.28,1.28,0,0,1-.47-.67l-1.06-3.15H243.05L242,186.06a1.28,1.28,0,0,1-.47.67,1.6,1.6,0,0,1-1,.28h-4.79a.84.84,0,0,1-.59-.24.82.82,0,0,1-.24-.59,1.71,1.71,0,0,1,.15-.57l8.28-23.94a2.15,2.15,0,0,1,.61-.9,1.64,1.64,0,0,1,1.1-.36h6.16a1.64,1.64,0,0,1,1.1.36,2.15,2.15,0,0,1,.61.9Zm-10-8.59-3.08-9.12L245,177Z"/><path class="cls-2" d="M264,186.71a1,1,0,0,1-.31-.72V161.44a1,1,0,0,1,.31-.72,1,1,0,0,1,.72-.31H276.9a10.59,10.59,0,0,1,5.25,1.14,7,7,0,0,1,2.91,2.91,8.49,8.49,0,0,1,.89,3.86,6.09,6.09,0,0,1-.67,3.06,5.73,5.73,0,0,1-1.46,1.76,5.67,5.67,0,0,1,2.05,2.34,7.92,7.92,0,0,1,.61,3.29,8.46,8.46,0,0,1-2.13,5.89c-1.42,1.57-3.63,2.35-6.65,2.35h-13A1,1,0,0,1,264,186.71Zm6.72-20.41v4.34h5.89a2.39,2.39,0,0,0,1.73-.57,2.46,2.46,0,0,0,0-3.2,2.39,2.39,0,0,0-1.73-.57Zm6.27,14.82a2.57,2.57,0,0,0,1.83-.64,2.4,2.4,0,0,0,0-3.35,2.57,2.57,0,0,0-1.83-.64h-6.27v4.63Z"/><path class="cls-2" d="M40.33,199.43a.44.44,0,0,1,.11.32V200a.61.61,0,0,1-.15.36l-4,4.69h.38a4.92,4.92,0,0,1,3.18.95A3.4,3.4,0,0,1,41,208.85a3.81,3.81,0,0,1-.59,2.12,3.72,3.72,0,0,1-1.61,1.37,5.65,5.65,0,0,1-2.34.46,5.81,5.81,0,0,1-2.38-.45,4,4,0,0,1-1.57-1.2,2.86,2.86,0,0,1-.59-1.6.33.33,0,0,1,.11-.26.41.41,0,0,1,.29-.1h.26a.58.58,0,0,1,.33.09.53.53,0,0,1,.19.35,2.22,2.22,0,0,0,1.2,1.58,5,5,0,0,0,2.16.45,3.82,3.82,0,0,0,2.43-.72,2.5,2.5,0,0,0,.91-2.09c0-1.75-1.05-2.62-3.15-2.62H35a.38.38,0,0,1-.42-.42v-.28a.87.87,0,0,1,.17-.46l3.92-4.62H32.92a.45.45,0,0,1-.31-.11.44.44,0,0,1-.11-.3v-.29a.45.45,0,0,1,.11-.31.39.39,0,0,1,.31-.13H40A.45.45,0,0,1,40.33,199.43Z"/><path class="cls-2" d="M51.28,200.57a6.61,6.61,0,0,1,1.11,3.8c0,.35,0,.89,0,1.61s0,1.24,0,1.58a6.61,6.61,0,0,1-1.11,3.8,4,4,0,0,1-3.45,1.44,4,4,0,0,1-3.45-1.44,6.61,6.61,0,0,1-1.11-3.8l0-1.58,0-1.61a6.61,6.61,0,0,1,1.11-3.8,4,4,0,0,1,3.45-1.45A4,4,0,0,1,51.28,200.57Zm-5.93.8a5.2,5.2,0,0,0-.88,3.09l0,1.48,0,1.52a5.14,5.14,0,0,0,.88,3.11,3.37,3.37,0,0,0,5,0,5.13,5.13,0,0,0,.89-3.11c0-.36,0-.87,0-1.52s0-1.14,0-1.48a5.2,5.2,0,0,0-.89-3.09,3.33,3.33,0,0,0-5,0Z"/><path class="cls-2" d="M63,200.57a6.54,6.54,0,0,1,1.12,3.8c0,.35,0,.89,0,1.61s0,1.24,0,1.58a6.54,6.54,0,0,1-1.12,3.8,4,4,0,0,1-3.44,1.44,4,4,0,0,1-3.45-1.44,6.53,6.53,0,0,1-1.11-3.8L55,206l0-1.61a6.53,6.53,0,0,1,1.11-3.8,4,4,0,0,1,3.45-1.45A4,4,0,0,1,63,200.57Zm-5.92.8a5.2,5.2,0,0,0-.89,3.09l0,1.48,0,1.52a5.13,5.13,0,0,0,.89,3.11,3.37,3.37,0,0,0,5,0,5.2,5.2,0,0,0,.88-3.11c0-.36,0-.87,0-1.52s0-1.14,0-1.48a5.27,5.27,0,0,0-.88-3.09,3.33,3.33,0,0,0-5,0Z"/><path class="cls-2" d="M74.69,200.57a6.61,6.61,0,0,1,1.11,3.8c0,.35,0,.89,0,1.61s0,1.24,0,1.58a6.61,6.61,0,0,1-1.11,3.8,4,4,0,0,1-3.45,1.44,4,4,0,0,1-3.45-1.44,6.61,6.61,0,0,1-1.11-3.8l0-1.58,0-1.61a6.61,6.61,0,0,1,1.11-3.8,4,4,0,0,1,3.45-1.45A4,4,0,0,1,74.69,200.57Zm-5.93.8a5.2,5.2,0,0,0-.88,3.09l0,1.48,0,1.52a5.14,5.14,0,0,0,.88,3.11,3.37,3.37,0,0,0,5,0,5.14,5.14,0,0,0,.88-3.11c0-.36,0-.87,0-1.52s0-1.14,0-1.48a5.2,5.2,0,0,0-.88-3.09,3.33,3.33,0,0,0-5,0Z"/><path class="cls-2" d="M92,207.67c0,.23,0,.41,0,.53a5.63,5.63,0,0,1-1,3.26,3.48,3.48,0,0,1-3,1.34,3.72,3.72,0,0,1-3.19-1.5v.9a.44.44,0,0,1-.11.3.41.41,0,0,1-.31.11H84a.37.37,0,0,1-.3-.11.41.41,0,0,1-.12-.3V199.54a.41.41,0,0,1,.42-.42h.32a.41.41,0,0,1,.31.12.41.41,0,0,1,.11.3V204a3.75,3.75,0,0,1,3.19-1.5,3.5,3.5,0,0,1,3,1.34,5.65,5.65,0,0,1,1,3.26C92,207.27,92,207.45,92,207.67ZM90,210.72a4.43,4.43,0,0,0,.77-2.52c0-.12,0-.3,0-.53a5.57,5.57,0,0,0-.68-2.89,2.53,2.53,0,0,0-2.36-1.13,2.85,2.85,0,0,0-1.69.47,3,3,0,0,0-1,1.21,3.7,3.7,0,0,0-.36,1.54l0,.75,0,.74a4,4,0,0,0,.82,2.34,2.66,2.66,0,0,0,2.26,1A2.59,2.59,0,0,0,90,210.72Z"/><path class="cls-2" d="M102.55,207.67a7.37,7.37,0,0,1,0,.8,4.67,4.67,0,0,1-1.15,3.13,4.51,4.51,0,0,1-6.13,0,4.72,4.72,0,0,1-1.15-3.13l0-.8,0-.8a4.69,4.69,0,0,1,1.15-3.12,4.49,4.49,0,0,1,6.13,0,4.64,4.64,0,0,1,1.15,3.12A7.48,7.48,0,0,1,102.55,207.67Zm-6.41-3.16a3.6,3.6,0,0,0-.88,2.46l0,.7,0,.71a3.6,3.6,0,0,0,.88,2.46,3.18,3.18,0,0,0,4.35,0,3.6,3.6,0,0,0,.88-2.46,6.08,6.08,0,0,0,0-.71,6,6,0,0,0,0-.7,3.6,3.6,0,0,0-.88-2.46,3.18,3.18,0,0,0-4.35,0Z"/><path class="cls-2" d="M106.22,212.5a.4.4,0,0,1-.3.11h-.33a.39.39,0,0,1-.3-.11.41.41,0,0,1-.12-.3V199.54a.38.38,0,0,1,.12-.3.39.39,0,0,1,.3-.12h.33a.41.41,0,0,1,.3.12.37.37,0,0,1,.11.3V212.2A.4.4,0,0,1,106.22,212.5Z"/><path class="cls-2" d="M110.67,200.59a.45.45,0,0,1-.31.11h-.72a.38.38,0,0,1-.42-.42v-.72a.45.45,0,0,1,.11-.31.39.39,0,0,1,.31-.13h.72a.44.44,0,0,1,.44.44v.72A.39.39,0,0,1,110.67,200.59Zm-.19,11.91a.41.41,0,0,1-.31.11h-.32a.41.41,0,0,1-.31-.11.44.44,0,0,1-.11-.3v-9a.41.41,0,0,1,.11-.3.41.41,0,0,1,.31-.12h.32a.41.41,0,0,1,.31.12.41.41,0,0,1,.11.3v9A.44.44,0,0,1,110.48,212.5Z"/><path class="cls-2" d="M120.45,204v-.87a.45.45,0,0,1,.11-.31.39.39,0,0,1,.31-.13h.3a.42.42,0,0,1,.32.13.41.41,0,0,1,.12.31v9.25a4.92,4.92,0,0,1-1,3.2,4.05,4.05,0,0,1-3.31,1.17,4.74,4.74,0,0,1-2.37-.51,3.1,3.1,0,0,1-1.25-1.17,2.57,2.57,0,0,1-.35-1.15.34.34,0,0,1,.13-.28.4.4,0,0,1,.29-.12h.27a.4.4,0,0,1,.27.09.68.68,0,0,1,.18.31,2.56,2.56,0,0,0,2.74,1.73,3.61,3.61,0,0,0,2.41-.67,3.07,3.07,0,0,0,.78-2.41V211.3a3.72,3.72,0,0,1-3.19,1.5,3.48,3.48,0,0,1-3-1.34,5.63,5.63,0,0,1-1-3.26l0-.53,0-.53a5.65,5.65,0,0,1,1-3.26,3.5,3.5,0,0,1,3-1.34A3.75,3.75,0,0,1,120.45,204Zm-5.33.58a4.56,4.56,0,0,0-.77,2.52l0,.53,0,.53a4.51,4.51,0,0,0,.77,2.52,2.61,2.61,0,0,0,2.25,1,2.64,2.64,0,0,0,2.26-1,4,4,0,0,0,.82-2.34c0-.13,0-.36,0-.69s0-.55,0-.68a4.07,4.07,0,0,0-.82-2.35,2.66,2.66,0,0,0-2.26-1A2.61,2.61,0,0,0,115.12,204.62Z"/><path class="cls-2" d="M131.46,203.85a5.4,5.4,0,0,1,1.11,3.6v.28a.38.38,0,0,1-.12.3.44.44,0,0,1-.32.12h-6.76v.19a4.23,4.23,0,0,0,.41,1.66,3.15,3.15,0,0,0,1,1.24,2.63,2.63,0,0,0,1.55.46,3.08,3.08,0,0,0,1.7-.41,3,3,0,0,0,.94-.82,1.35,1.35,0,0,1,.26-.29.58.58,0,0,1,.31-.06h.31a.43.43,0,0,1,.28.1.3.3,0,0,1,.12.25,1.61,1.61,0,0,1-.51,1,4.16,4.16,0,0,1-1.39,1,4.71,4.71,0,0,1-2,.41,3.76,3.76,0,0,1-2.9-1.18,5.1,5.1,0,0,1-1.26-3.19l0-.76,0-.76a5.14,5.14,0,0,1,1.25-3.17,3.73,3.73,0,0,1,2.91-1.2A3.84,3.84,0,0,1,131.46,203.85Zm-.05,3.23V207a3.52,3.52,0,0,0-.82-2.41,2.77,2.77,0,0,0-2.22-.95,2.71,2.71,0,0,0-2.19.95,3.57,3.57,0,0,0-.81,2.41v.07Z"/><path class="cls-2" d="M139.53,202.73a.41.41,0,0,1,.3.12.37.37,0,0,1,.11.3v.27a.39.39,0,0,1-.11.3.4.4,0,0,1-.3.11h-.82a2.48,2.48,0,0,0-1.81.67,2.44,2.44,0,0,0-.66,1.81v5.89a.41.41,0,0,1-.12.3.45.45,0,0,1-.32.11h-.3a.41.41,0,0,1-.31-.11.44.44,0,0,1-.11-.3v-9a.45.45,0,0,1,.11-.31.39.39,0,0,1,.31-.13h.3a.42.42,0,0,1,.32.13.41.41,0,0,1,.12.31V204a2.65,2.65,0,0,1,2.58-1.31Z"/><path class="cls-2" d="M147.38,200.59a.45.45,0,0,1-.31.11h-.72a.38.38,0,0,1-.42-.42v-.72a.45.45,0,0,1,.11-.31.39.39,0,0,1,.31-.13h.72a.44.44,0,0,1,.44.44v.72A.39.39,0,0,1,147.38,200.59Zm-.2,11.91a.37.37,0,0,1-.3.11h-.32a.41.41,0,0,1-.31-.11.44.44,0,0,1-.11-.3v-9a.41.41,0,0,1,.11-.3.41.41,0,0,1,.31-.12h.32a.41.41,0,0,1,.42.42v9A.41.41,0,0,1,147.18,212.5Z"/><path class="cls-2" d="M156.72,212.2a.41.41,0,0,1-.12.3.42.42,0,0,1-.31.11h-.35a.39.39,0,0,1-.3-.11.4.4,0,0,1-.11-.3V199.75a.41.41,0,0,1,.11-.31.37.37,0,0,1,.3-.13h.4a.46.46,0,0,1,.4.23l7,10.72V199.75a.41.41,0,0,1,.12-.31.35.35,0,0,1,.3-.13h.34a.41.41,0,0,1,.44.44v12.43a.43.43,0,0,1-.12.31.38.38,0,0,1-.3.12h-.42a.47.47,0,0,1-.4-.22l-7-10.68Z"/><path class="cls-2" d="M176.27,207.67a7.37,7.37,0,0,1,0,.8,4.67,4.67,0,0,1-1.15,3.13,4.51,4.51,0,0,1-6.13,0,4.72,4.72,0,0,1-1.15-3.13l0-.8,0-.8a4.69,4.69,0,0,1,1.15-3.12,4.49,4.49,0,0,1,6.13,0,4.64,4.64,0,0,1,1.15,3.12A7.48,7.48,0,0,1,176.27,207.67Zm-6.41-3.16A3.64,3.64,0,0,0,169,207l0,.7,0,.71a3.64,3.64,0,0,0,.88,2.46,3.18,3.18,0,0,0,4.35,0,3.65,3.65,0,0,0,.89-2.46c0-.13,0-.36,0-.71s0-.57,0-.7a3.65,3.65,0,0,0-.89-2.46,3.18,3.18,0,0,0-4.35,0Z"/><path class="cls-2" d="M183.32,202.73a.41.41,0,0,1,.31.12.41.41,0,0,1,.11.3v.27a.42.42,0,0,1-.11.3.41.41,0,0,1-.31.11h-.82a2.3,2.3,0,0,0-2.46,2.48v5.89a.42.42,0,0,1-.13.3.42.42,0,0,1-.31.11h-.31a.38.38,0,0,1-.41-.41v-9a.41.41,0,0,1,.11-.31.38.38,0,0,1,.3-.13h.31a.4.4,0,0,1,.31.13.42.42,0,0,1,.13.31V204a2.63,2.63,0,0,1,2.58-1.31Z"/><path class="cls-2" d="M192,199.54a.37.37,0,0,1,.11-.3.41.41,0,0,1,.3-.12h.33a.39.39,0,0,1,.3.12.38.38,0,0,1,.12.3V212.2a.41.41,0,0,1-.12.3.39.39,0,0,1-.3.11h-.33a.38.38,0,0,1-.41-.41v-.9a3.73,3.73,0,0,1-3.2,1.5,3.5,3.5,0,0,1-3-1.34,5.69,5.69,0,0,1-1-3.26l0-.53,0-.53a5.72,5.72,0,0,1,1-3.26,3.53,3.53,0,0,1,3-1.34A3.77,3.77,0,0,1,192,204Zm-.36,5.79a3,3,0,0,0-1-1.21,2.88,2.88,0,0,0-1.69-.47,2.58,2.58,0,0,0-2.25,1,4.48,4.48,0,0,0-.77,2.52l0,.53a5.58,5.58,0,0,0,.68,2.9,2.54,2.54,0,0,0,2.36,1.13,2.66,2.66,0,0,0,2.26-1,4,4,0,0,0,.82-2.34c0-.13,0-.38,0-.74s0-.62,0-.75A4,4,0,0,0,191.65,205.33Z"/><path class="cls-2" d="M196.55,202.85a.38.38,0,0,1,.3-.12h.32a.41.41,0,0,1,.31.12.41.41,0,0,1,.11.3V213a3.88,3.88,0,0,1-.63,2.35,2.61,2.61,0,0,1-2.24.84h-.07a.41.41,0,0,1-.31-.11.44.44,0,0,1-.11-.3v-.27a.41.41,0,0,1,.11-.3.41.41,0,0,1,.31-.12h.07a1.52,1.52,0,0,0,1.38-.53,3,3,0,0,0,.33-1.56v-9.88A.38.38,0,0,1,196.55,202.85Zm1.13-2.26a.5.5,0,0,1-.32.11h-.72a.41.41,0,0,1-.3-.11.41.41,0,0,1-.12-.31v-.72a.41.41,0,0,1,.12-.31.35.35,0,0,1,.3-.13h.72a.42.42,0,0,1,.32.13.41.41,0,0,1,.12.31v.72A.41.41,0,0,1,197.68,200.59Z"/><path class="cls-2" d="M208.57,203.49l-5.39,12.45a.45.45,0,0,1-.44.28h-.38a.36.36,0,0,1-.27-.11.4.4,0,0,1-.11-.27,1.56,1.56,0,0,1,.11-.38l1.47-3.42-3.63-8.55a1.24,1.24,0,0,1-.12-.38.41.41,0,0,1,.38-.38h.4a.45.45,0,0,1,.44.29l3.19,7.52,3.27-7.52a.48.48,0,0,1,.44-.29h.38a.41.41,0,0,1,.38.38A1.24,1.24,0,0,1,208.57,203.49Z"/><path class="cls-2" d="M211.86,212.5a.39.39,0,0,1-.3.11h-.33a.38.38,0,0,1-.41-.41V199.54a.37.37,0,0,1,.11-.3.41.41,0,0,1,.3-.12h.33a.39.39,0,0,1,.3.12.37.37,0,0,1,.11.3V212.2A.4.4,0,0,1,211.86,212.5Z"/><path class="cls-2" d="M216.13,212.5a.37.37,0,0,1-.3.11h-.32a.41.41,0,0,1-.31-.11.44.44,0,0,1-.11-.3V199.54a.41.41,0,0,1,.11-.3.41.41,0,0,1,.31-.12h.32a.41.41,0,0,1,.42.42V212.2A.41.41,0,0,1,216.13,212.5Z"/><path class="cls-2" d="M225.37,211.3a3.34,3.34,0,0,1-1.23,1.07,4.5,4.5,0,0,1-2.13.43,3.75,3.75,0,0,1-1.7-.38,3.2,3.2,0,0,1-1.24-1,2.4,2.4,0,0,1-.47-1.43,2.49,2.49,0,0,1,1-2.05,5.64,5.64,0,0,1,2.75-1l3-.41v-.67a2,2,0,0,0-.64-1.6,2.84,2.84,0,0,0-1.95-.56,2.91,2.91,0,0,0-1.58.38,1.67,1.67,0,0,0-.79.91.68.68,0,0,1-.18.31.41.41,0,0,1-.28.09h-.26a.43.43,0,0,1-.3-.13.4.4,0,0,1-.12-.29,1.85,1.85,0,0,1,.38-1,3.19,3.19,0,0,1,1.18-1,4.13,4.13,0,0,1,1.95-.42,3.71,3.71,0,0,1,2.89,1,3.45,3.45,0,0,1,.86,2.36v6.33a.41.41,0,0,1-.12.3.37.37,0,0,1-.3.11h-.32a.41.41,0,0,1-.31-.11.44.44,0,0,1-.11-.3Zm0-3.78-2.45.34a5.93,5.93,0,0,0-2.36.72,1.53,1.53,0,0,0-.06,2.65,3.31,3.31,0,0,0,4-.44,3.61,3.61,0,0,0,.89-2.62Z"/><path class="cls-2" d="M237.64,212.5a.39.39,0,0,1-.3.11H237a.41.41,0,0,1-.31-.11.4.4,0,0,1-.11-.3v-5.31a3.51,3.51,0,0,0-.75-2.39,2.72,2.72,0,0,0-2.16-.85,2.87,2.87,0,0,0-2.19.86,3.35,3.35,0,0,0-.81,2.38v5.31a.41.41,0,0,1-.12.3.37.37,0,0,1-.3.11H230a.41.41,0,0,1-.31-.11.44.44,0,0,1-.11-.3v-9a.41.41,0,0,1,.11-.3.41.41,0,0,1,.31-.12h.32a.41.41,0,0,1,.42.42V204a4,4,0,0,1,1.3-1.12,4.15,4.15,0,0,1,1.89-.38,3.56,3.56,0,0,1,2.87,1.19,4.58,4.58,0,0,1,1,3.07v5.4A.41.41,0,0,1,237.64,212.5Z"/><path class="cls-2" d="M247.5,199.54a.41.41,0,0,1,.42-.42h.32a.41.41,0,0,1,.31.12.41.41,0,0,1,.11.3V212.2a.44.44,0,0,1-.11.3.41.41,0,0,1-.31.11h-.32a.37.37,0,0,1-.3-.11.41.41,0,0,1-.12-.3v-.9a3.71,3.71,0,0,1-3.19,1.5,3.48,3.48,0,0,1-3-1.34,5.62,5.62,0,0,1-1-3.26l0-.53,0-.53a5.65,5.65,0,0,1,1-3.26,3.5,3.5,0,0,1,3-1.34,3.74,3.74,0,0,1,3.19,1.5Zm-.36,5.79a3.06,3.06,0,0,0-1-1.21,2.89,2.89,0,0,0-1.7-.47,2.61,2.61,0,0,0-2.25,1,4.56,4.56,0,0,0-.77,2.52l0,.53a5.49,5.49,0,0,0,.69,2.9,2.53,2.53,0,0,0,2.35,1.13,2.66,2.66,0,0,0,2.27-1,4.08,4.08,0,0,0,.81-2.34,6.6,6.6,0,0,0,0-.74,6.71,6.71,0,0,0,0-.75A3.7,3.7,0,0,0,247.14,205.33Z"/></g></svg>